<svg width="102" height="102" viewBox="0 0 102 102" fill="none" xmlns="http://www.w3.org/2000/svg">
<rect x="1.41421" y="51" width="70.1249" height="70.1249" rx="19" transform="rotate(-45 1.41421 51)" stroke="white" stroke-width="2"/>
<g clip-path="url(#clip0_1_50461)">
<path d="M70.1821 37.6582C69.9639 37.0964 69.4909 36.6888 68.9167 36.5679C68.3298 36.4441 67.7167 36.6333 67.2767 37.0733L63.174 41.176L61.1707 39.1726L65.5342 34.8092C65.9885 34.3549 66.1834 33.7223 66.056 33.1169C65.9314 32.525 65.511 32.0373 64.9315 31.8123C61.1234 30.333 56.7966 31.2436 53.9084 34.1317C52.3877 35.6524 51.3948 37.5726 51.0362 39.6857C50.9595 40.0451 50.8852 40.4268 50.8067 40.8305C50.3479 43.1887 49.777 46.1235 48.103 47.7974L33.1145 62.786C31.2637 64.6367 31.2637 67.6483 33.1145 69.4991C34.0399 70.4245 35.2555 70.8871 36.4711 70.8871C37.6866 70.8871 38.9022 70.4245 39.8276 69.4991L54.816 54.5106C56.4901 52.8366 59.4248 52.2657 61.783 51.8069C62.1867 51.7283 62.5684 51.6541 62.9279 51.5774C65.041 51.2188 66.9611 50.2259 68.4818 48.7052C68.9305 48.2565 69.0604 47.6474 68.8746 47.1059C70.9109 44.4084 71.4178 40.8396 70.1821 37.6582V37.6582ZM68.3753 38.1718C68.4437 38.1034 68.5244 38.0728 68.5967 38.0882C68.6588 38.1012 68.7049 38.1458 68.7341 38.2206C69.7272 40.7777 69.3839 43.6322 67.8586 45.8606L64.2726 42.2745L68.3753 38.1718ZM67.3832 47.6068C66.0884 48.9017 64.4527 49.7459 62.6532 50.0483C62.6419 50.0502 62.6307 50.0524 62.6194 50.0548C62.2692 50.1297 61.8889 50.2036 61.4862 50.282C58.9205 50.7811 55.7271 51.4023 53.7174 53.4121L38.7291 68.4005C37.4842 69.6456 35.4582 69.6455 34.2131 68.4004C32.968 67.1554 32.968 65.1296 34.2131 63.8845L49.2016 48.896C51.2113 46.8863 51.8325 43.693 52.3317 41.1272C52.41 40.7245 52.484 40.3442 52.5589 39.994C52.5613 39.9827 52.5635 39.9716 52.5654 39.9601C52.8676 38.1608 53.7119 36.5251 55.007 35.2302C56.6794 33.5577 58.9194 32.6663 61.201 32.6663C62.2657 32.6663 63.3399 32.8605 64.3691 33.2603C64.4627 33.2966 64.5188 33.356 64.5358 33.4367C64.555 33.5278 64.5185 33.6276 64.4357 33.7103L59.5229 38.6231C59.2196 38.9264 59.2196 39.4183 59.5229 39.7217L67.3875 47.5863C67.3903 47.589 67.3927 47.5915 67.3948 47.5939C67.3918 47.5979 67.388 47.602 67.3832 47.6068V47.6068Z" fill="white"/>
<path d="M58.4242 40.8205C58.2784 40.6749 58.0809 40.593 57.8749 40.593C57.6689 40.593 57.4713 40.6749 57.3256 40.8205L55.1287 43.0176C54.8253 43.3209 54.8253 43.8128 55.1287 44.1162L58.2305 47.2181C58.3761 47.3637 58.5738 47.4456 58.7798 47.4456C58.9858 47.4456 59.1834 47.3637 59.329 47.2181L61.5261 45.021C61.8294 44.7177 61.8294 44.2259 61.5261 43.9224L58.4242 40.8205ZM58.7797 45.5702L56.7764 43.5668L57.8749 42.4683L59.8782 44.4716L58.7797 45.5702Z" fill="white"/>
<path d="M37.0202 65.5931C36.7167 65.2897 36.2251 65.2901 35.9218 65.5933C35.6185 65.8967 35.6186 66.3887 35.9219 66.6921C36.0736 66.8437 36.2724 66.9196 36.4712 66.9196C36.67 66.9196 36.8688 66.8437 37.0205 66.6921C37.3238 66.3888 37.3238 65.8969 37.0205 65.5935L37.0202 65.5931Z" fill="white"/>
<path d="M50.9104 50.6051L38.3937 63.1218C38.0903 63.4251 38.0903 63.917 38.3937 64.2204C38.5454 64.372 38.7441 64.4479 38.9429 64.4479C39.1417 64.4479 39.3405 64.372 39.4922 64.2204L52.009 51.7036C52.3123 51.4003 52.3123 50.9084 52.009 50.605C51.7056 50.3017 51.2138 50.3017 50.9104 50.6051Z" fill="white"/>
</g>
<defs>
<clipPath id="clip0_1_50461">
<rect width="39.7744" height="39.7744" fill="white" transform="translate(31.4005 31.1128)"/>
</clipPath>
</defs>
</svg>
