<svg width="40" height="40" viewBox="0 0 40 40" fill="none" xmlns="http://www.w3.org/2000/svg">
<path d="M39.1821 6.65824C38.9639 6.09639 38.4909 5.68881 37.9167 5.56795C37.3298 5.44405 36.7167 5.63327 36.2767 6.07332L32.174 10.176L30.1707 8.17264L34.5342 3.80916C34.9885 3.3549 35.1834 2.72229 35.056 2.11687C34.9314 1.52497 34.511 1.0373 33.9315 0.812272C30.1234 -0.667027 25.7966 0.243592 22.9084 3.13174C21.3877 4.65244 20.3948 6.57256 20.0362 8.68571C19.9595 9.04512 19.8852 9.42683 19.8067 9.83052C19.3479 12.1887 18.777 15.1235 17.103 16.7974L2.11446 31.786C0.263706 33.6367 0.263706 36.6483 2.11446 38.4991C3.03991 39.4245 4.2555 39.8871 5.47108 39.8871C6.68658 39.8871 7.90224 39.4245 8.82762 38.4991L23.816 23.5106C25.4901 21.8366 28.4248 21.2657 30.783 20.8069C31.1867 20.7283 31.5684 20.6541 31.9279 20.5774C34.041 20.2188 35.9611 19.2259 37.4818 17.7052C37.9305 17.2565 38.0604 16.6474 37.8746 16.1059C39.9109 13.4084 40.4178 9.83961 39.1821 6.65824V6.65824ZM37.3753 7.17176C37.4437 7.10341 37.5244 7.0728 37.5967 7.08818C37.6588 7.10123 37.7049 7.14582 37.7341 7.22062C38.7272 9.7777 38.3839 12.6322 36.8586 14.8606L33.2726 11.2745L37.3753 7.17176ZM36.3832 16.6068C35.0884 17.9017 33.4527 18.7459 31.6532 19.0483C31.6419 19.0502 31.6307 19.0524 31.6194 19.0548C31.2692 19.1297 30.8889 19.2036 30.4862 19.282C27.9205 19.7811 24.7271 20.4023 22.7174 22.4121L7.7291 37.4005C6.48415 38.6456 4.45824 38.6455 3.21306 37.4004C1.96804 36.1554 1.96804 34.1296 3.21306 32.8845L18.2016 17.896C20.2113 15.8863 20.8325 12.693 21.3317 10.1272C21.41 9.72449 21.484 9.34418 21.5589 8.99401C21.5613 8.98275 21.5635 8.97156 21.5654 8.96014C21.8676 7.16081 22.7119 5.52515 24.007 4.23018C25.6794 2.5577 27.9194 1.66626 30.201 1.66626C31.2657 1.66626 32.3399 1.86054 33.3691 2.26027C33.4627 2.29662 33.5188 2.35597 33.5358 2.43667C33.555 2.52779 33.5185 2.62761 33.4357 2.71033L28.5229 7.62307C28.2196 7.92641 28.2196 8.41826 28.5229 8.72167L36.3875 16.5863C36.3903 16.589 36.3927 16.5915 36.3948 16.5939C36.3918 16.5979 36.388 16.602 36.3832 16.6068V16.6068Z" fill="white"/>
<path d="M27.4242 9.82054C27.2784 9.67489 27.0809 9.59302 26.8749 9.59302C26.6689 9.59302 26.4713 9.67489 26.3256 9.82054L24.1287 12.0176C23.8253 12.3209 23.8253 12.8128 24.1287 13.1162L27.2305 16.2181C27.3761 16.3637 27.5738 16.4456 27.7798 16.4456C27.9858 16.4456 28.1834 16.3637 28.329 16.2181L30.5261 14.021C30.8294 13.7177 30.8294 13.2259 30.5261 12.9224L27.4242 9.82054ZM27.7797 14.5702L25.7764 12.5668L26.8749 11.4683L28.8782 13.4716L27.7797 14.5702Z" fill="white"/>
<path d="M6.02016 34.5931C5.71675 34.2897 5.22512 34.2901 4.92179 34.5933C4.61846 34.8967 4.61861 35.3887 4.92195 35.6921C5.07365 35.8437 5.27243 35.9196 5.47121 35.9196C5.66998 35.9196 5.86876 35.8437 6.02047 35.6921C6.3238 35.3888 6.3238 34.8969 6.02047 34.5935L6.02016 34.5931Z" fill="white"/>
<path d="M19.9104 19.6051L7.39366 32.1218C7.09033 32.4251 7.09033 32.917 7.39366 33.2204C7.54536 33.372 7.74414 33.4479 7.94292 33.4479C8.1417 33.4479 8.34047 33.372 8.49218 33.2204L21.009 20.7036C21.3123 20.4003 21.3123 19.9084 21.009 19.605C20.7056 19.3017 20.2139 19.3017 19.9104 19.6051Z" fill="white"/>
</svg>
